<?xml version="1.0" encoding="UTF-8"?>
<svg id="Layer_1" data-name="Layer 1" xmlns="http://www.w3.org/2000/svg" viewBox="0 0 86.86 70.29">
  <defs>
    <style>
      .cls-1, .cls-2 {
        stroke: #000;
        stroke-miterlimit: 10;
        stroke-width: 3px;
      }

      .cls-2 {
        fill: #fff;
      }
    </style>
  </defs>
  <path class="cls-2" d="m44.86,42.34c-.29.29-.68.44-1.06.44s-.77-.15-1.06-.44L13.59,13.27v41.38h60V13.61l-28.73,28.73Z"/>
  <path class="cls-1" d="m76.58,9.9s0-.07-.01-.1c-.02-.13-.04-.25-.09-.37,0,0,0,0,0,0,0,0,0,0,0,0-.05-.12-.12-.23-.2-.34-.02-.02-.04-.05-.06-.07-.09-.1-.18-.19-.29-.26,0,0,0,0,0,0-.1-.07-.22-.12-.34-.16-.03-.01-.06-.02-.09-.03-.13-.03-.26-.06-.39-.06H12.09c-.83,0-1.5.67-1.5,1.5v46.16c0,.83.67,1.5,1.5,1.5h63c.83,0,1.5-.67,1.5-1.5V9.99s0-.06,0-.09Zm-5.11,1.59l-27.67,27.67L16.05,11.49h55.42ZM13.59,54.65V13.27l29.16,29.07c.29.29.68.44,1.06.44s.77-.15,1.06-.44l28.73-28.73v41.04H13.59Z"/>
  <polygon class="cls-2" points="71.47 11.49 16.05 11.49 43.8 39.16 71.47 11.49"/>
</svg>