<?xml version="1.0" encoding="UTF-8"?>
<svg id="Layer_1" data-name="Layer 1" xmlns="http://www.w3.org/2000/svg" viewBox="0 0 63 55">
  <path d="m13.63,15.26v-6.35h6.86v6.35h-6.86Zm0,29.44v-25.93h6.86v25.93h-6.86Z"/>
  <path d="m51.11,44.7h-6.86v-13.23c0-2.8-.15-4.61-.44-5.43-.29-.82-.77-1.46-1.43-1.92-.66-.46-1.45-.68-2.38-.68-1.19,0-2.25.33-3.2.98-.94.65-1.59,1.51-1.94,2.59-.35,1.07-.52,3.06-.52,5.96v11.74h-6.86v-25.93h6.37v3.81c2.26-2.93,5.11-4.39,8.54-4.39,1.51,0,2.9.27,4.15.82,1.25.55,2.2,1.24,2.84,2.09.64.85,1.09,1.81,1.34,2.88.25,1.07.38,2.61.38,4.61v16.11Z"/>
</svg>